<?xml version="1.0" encoding="UTF-8"?>
<svg enable-background="new 0 0 156 156"
     version="1.1" viewBox="0 0 156 156"
     xmlns="http://www.w3.org/2000/svg">
    <g>
        <g transform="scale(2.4375)">
            <rect width="64" height="64" fill="#25939d"/>
            <path d="m29.2 20.5v15.3c0 0.7-0.6 1.3-1.3 1.3v11.5c0 0.7-0.6 1.3-1.3 1.3h-10.2c-0.7 0-1.3-0.6-1.3-1.3v-10.2l5-17.4c0.1-0.3 0.3-0.5 0.6-0.5zm6.3 0v14h-5.1v-14zm15.4 17.9v10.2c0 0.7-0.6 1.3-1.3 1.3h-10.2c-0.7 0-1.3-0.6-1.3-1.3v-11.5c-0.7 0-1.3-0.6-1.3-1.3v-15.3h8.5c0.3 0 0.5 0.2 0.6 0.5zm-21.1-23.6v4.5h-7v-4.5c0-0.4 0.3-0.6 0.6-0.6h5.7c0.4-0.1 0.7 0.2 0.7 0.6zm13.4 0v4.5h-7v-4.5c0-0.4 0.3-0.6 0.6-0.6h5.7c0.4-0.1 0.7 0.2 0.7 0.6z"
                  fill="#fff"/>
        </g>
        <path d="m156 0v156h-156z"/>
        <path d="m156 0v156h-156z" fill="#d4372f"/>
        <path d="m133.68 57.15c-8.2382-0.28035-23.016 6.1908-43.229 8.2121l-25.737 25.771c3.484-1.0509 8.4779-2.6333 8.4779-2.6333 2.418-0.967 5.5613-1.209 8.6113-0.125 8.367 2.971 20.535 8.0658 29.861 10.176 15.066 3.117 29.117-2.3013 30.17-26.695 0.47175-10.931-2.282-14.505-8.1543-14.705z"
              fill="#fff"/>
        <path d="m120.25 85.21s-9.066 1.166-21.762-4.275c-1.471-0.631-6.9-3.883-6.08-4.051 0.104-0.021 34.709-4.541 34.727-4.755 0-1e-3 1.24 6.063-6.885 13.081z"
              fill="#d4372f"/>
    </g>
</svg>
